<?xml version="1.0" standalone="no"?>
<!DOCTYPE svg PUBLIC "-//W3C//DTD SVG 20010904//EN"
 "http://www.w3.org/TR/2001/REC-SVG-20010904/DTD/svg10.dtd">
<svg version="1.0" xmlns="http://www.w3.org/2000/svg"
 width="300.000000pt" height="47.000000pt" viewBox="0 0 300.000000 47.000000"
 preserveAspectRatio="xMidYMid meet">
<metadata>
Created by potrace 1.10, written by Peter Selinger 2001-2011
</metadata>
<g transform="translate(0.000000,47.000000) scale(0.100000,-0.100000)"
fill="#000000" stroke="none">
<path d="M636 415 c-46 -16 -99 -65 -121 -111 -17 -37 -20 -126 -5 -155 14
-25 62 -49 100 -49 44 0 120 20 120 32 0 6 -10 8 -22 4 -13 -3 -42 -9 -65 -12
-38 -6 -45 -3 -74 25 -30 30 -31 35 -26 87 7 66 46 138 87 159 55 29 113 14
123 -30 3 -17 5 -16 16 9 6 16 8 32 4 36 -17 16 -99 19 -137 5z"/>
<path d="M293 411 c-54 -7 -85 -27 -109 -73 -20 -39 -18 -51 6 -38 11 6 20 17
20 25 0 30 44 66 88 72 23 3 42 2 42 -2 0 -3 -30 -56 -66 -116 -89 -148 -130
-180 -181 -144 -18 13 -23 13 -33 1 -15 -19 15 -36 66 -36 33 0 45 7 85 50 45
48 49 50 103 50 l56 0 0 -51 c0 -48 1 -51 23 -45 12 3 34 6 50 6 15 0 27 5 27
10 0 6 -11 10 -24 10 -15 0 -27 7 -30 18 -7 20 -25 200 -26 245 0 30 0 30 -97
18z m66 -153 l1 -38 -51 0 -50 0 26 43 c14 23 33 58 43 77 l17 35 7 -40 c4
-22 7 -57 7 -77z"/>
<path d="M1015 411 c-27 -4 -60 -12 -72 -19 -24 -13 -70 -92 -54 -92 25 0 41
14 41 36 0 14 10 30 24 39 31 21 96 32 96 16 0 -17 -128 -224 -152 -244 -32
-27 -66 -32 -88 -12 -16 15 -22 16 -35 5 -15 -12 -14 -15 7 -26 53 -30 115 -9
157 52 22 32 27 34 82 34 l59 0 1 -42 c1 -24 1 -47 0 -52 -1 -5 8 -6 21 -2 13
3 35 6 51 6 15 0 27 5 27 10 0 6 -9 10 -20 10 -31 0 -39 29 -46 164 -8 142 2
130 -99 117z m55 -93 c0 -29 3 -63 6 -75 6 -22 3 -23 -46 -23 -28 0 -50 4 -48
8 15 37 75 142 81 142 4 0 7 -24 7 -52z"/>
<path d="M1325 411 c-22 -4 -50 -13 -62 -19 -24 -13 -66 -85 -56 -95 10 -11
43 18 43 39 0 26 26 50 63 59 33 9 32 14 6 -116 -25 -123 -32 -139 -63 -139
-13 0 -29 -6 -35 -14 -9 -11 2 -14 62 -20 131 -12 233 28 270 107 21 44 22
135 2 164 -27 38 -122 52 -230 34z m176 -40 c35 -36 39 -94 10 -156 -35 -75
-86 -101 -176 -88 l-45 6 25 29 c26 31 37 63 56 171 l12 67 44 0 c36 0 50 -6
74 -29z"/>
<path d="M1745 411 c-55 -10 -83 -26 -105 -64 -27 -43 -26 -61 0 -47 11 6 20
18 20 26 0 23 55 74 79 74 12 0 21 -2 21 -4 0 -2 -9 -50 -21 -107 -23 -113
-39 -149 -68 -149 -15 0 -52 -29 -40 -31 2 0 49 -2 105 -5 99 -6 101 -5 130
21 21 19 23 25 9 19 -28 -11 -165 -17 -165 -7 0 4 11 18 25 31 13 13 27 39 31
58 6 34 8 35 45 33 21 -2 44 2 51 9 9 9 2 12 -35 12 -52 0 -51 -1 -36 70 11
50 11 50 49 50 28 0 43 -6 53 -21 14 -20 15 -19 25 10 l11 31 -72 -1 c-40 -1
-90 -5 -112 -8z"/>
<path d="M2078 410 c-42 -8 -73 -32 -94 -72 -18 -34 -17 -38 1 -38 8 0 21 15
29 34 24 57 103 95 91 44 -3 -13 -14 -65 -25 -117 -27 -127 -59 -160 -120
-124 -26 15 -32 16 -40 3 -12 -20 -4 -28 34 -36 79 -14 136 48 158 174 7 40
15 69 19 64 9 -10 39 -144 39 -176 0 -15 4 -26 9 -26 9 0 94 128 125 188 10
19 20 32 23 29 4 -4 -24 -155 -44 -235 -5 -22 -4 -23 33 -16 54 9 78 23 42 24
-17 0 -28 6 -28 14 0 20 49 256 55 267 4 5 -4 9 -17 9 -20 0 -37 -21 -93 -112
l-70 -112 -8 40 c-5 21 -18 72 -29 112 -22 77 -21 76 -90 62z"/>
<path d="M2484 399 l-19 -21 33 7 c30 6 33 5 28 -11 -3 -11 -14 -61 -25 -113
-22 -99 -33 -121 -61 -121 -10 0 -23 -6 -29 -14 -10 -12 -2 -15 46 -18 39 -3
63 0 73 9 12 11 8 13 -24 13 l-38 0 30 34 c33 38 35 44 52 131 17 88 20 95 39
95 10 0 24 7 31 15 11 13 4 15 -52 15 -54 0 -68 -4 -84 -21z"/>
<path d="M2670 398 c-26 -28 -26 -47 0 -23 29 26 43 15 67 -55 l23 -62 -46
-54 c-44 -52 -74 -71 -93 -60 -12 8 -34 -21 -26 -34 19 -31 86 12 140 91 l29
41 18 -53 c20 -58 43 -89 67 -89 24 0 61 29 61 47 0 15 -2 14 -18 0 -29 -27
-39 -21 -60 36 -38 102 -39 95 14 148 27 27 56 49 65 49 9 0 24 9 34 20 18 20
17 20 -11 20 -22 0 -41 -14 -84 -59 l-56 -59 -26 59 c-22 50 -30 59 -52 59
-14 0 -34 -10 -46 -22z"/>
</g>
</svg>
